<mxfile host="Electron" modified="2025-04-28T11:31:13.333Z" agent="Mozilla/5.0 (Windows NT 10.0; Win64; x64) AppleWebKit/537.36 (KHTML, like Gecko) draw.io/24.1.0 Chrome/120.0.6099.109 Electron/28.1.0 Safari/537.36" etag="TAT3csLh5x3cKL0wQU8Z" version="24.1.0" type="device">
  <diagram name="Page-1" id="g9FyDZhkphHR89vdLsGx">
    <mxGraphModel dx="2679" dy="2067" grid="1" gridSize="10" guides="1" tooltips="1" connect="1" arrows="1" fold="1" page="1" pageScale="1" pageWidth="850" pageHeight="1100" math="0" shadow="0">
      <root>
        <mxCell id="0" />
        <mxCell id="1" parent="0" />
        <mxCell id="8AMQjc9TOl1Qg2qMmbZ1-1" value="- This is Design Documentation for Simulation Draw a tree on Console Screen&lt;div&gt;&lt;br&gt;&lt;/div&gt;&lt;div&gt;For instance, I have a tree like as folow:&lt;br&gt;1 -&amp;gt; [2,3,4]&lt;/div&gt;&lt;div&gt;2 -&amp;gt; [4,5,1]&lt;/div&gt;&lt;div&gt;3 -&amp;gt; [7,8,9]&lt;/div&gt;&lt;div&gt;5 -&amp;gt; [6,20]&lt;/div&gt;&lt;div&gt;6 -&amp;gt; [10,11]&lt;/div&gt;&lt;div&gt;&lt;br&gt;&lt;/div&gt;&lt;div&gt;So on console screen, It seems like this:&lt;br&gt;&lt;br&gt;&lt;/div&gt;&lt;div&gt;&lt;span style=&quot;white-space: pre;&quot;&gt;&#x9;&lt;/span&gt;&lt;br&gt;&lt;/div&gt;&lt;div&gt;&lt;span style=&quot;white-space: pre;&quot;&gt;&#x9;&lt;/span&gt;&lt;br&gt;&lt;/div&gt;&lt;div&gt;&lt;span style=&quot;white-space: pre;&quot;&gt;&#x9;&lt;/span&gt;&amp;nbsp;&lt;br&gt;&lt;/div&gt;" style="text;html=1;align=left;verticalAlign=top;whiteSpace=wrap;rounded=0;" parent="1" vertex="1">
          <mxGeometry x="90" y="160" width="430" height="570" as="geometry" />
        </mxCell>
        <mxCell id="8AMQjc9TOl1Qg2qMmbZ1-3" value="" style="verticalLabelPosition=bottom;shadow=0;dashed=0;align=center;html=1;verticalAlign=top;strokeWidth=1;shape=mxgraph.mockup.markup.line;strokeColor=#FF0000;direction=north;" parent="1" vertex="1">
          <mxGeometry x="150" y="350" width="20" height="50" as="geometry" />
        </mxCell>
        <mxCell id="8AMQjc9TOl1Qg2qMmbZ1-4" value="" style="endArrow=classic;html=1;rounded=0;exitX=0.48;exitY=0.55;exitDx=0;exitDy=0;exitPerimeter=0;" parent="1" source="8AMQjc9TOl1Qg2qMmbZ1-3" edge="1">
          <mxGeometry width="50" height="50" relative="1" as="geometry">
            <mxPoint x="-50" y="350" as="sourcePoint" />
            <mxPoint x="-50" y="300" as="targetPoint" />
          </mxGeometry>
        </mxCell>
        <mxCell id="8AMQjc9TOl1Qg2qMmbZ1-5" value="It is character &#39; | &#39; on computer, we can combine multiple it to create dynamic length of line, the default of length is length of one character &#39; | &#39;" style="text;html=1;align=left;verticalAlign=top;whiteSpace=wrap;rounded=0;" parent="1" vertex="1">
          <mxGeometry x="-340" y="220" width="340" height="80" as="geometry" />
        </mxCell>
        <mxCell id="8AMQjc9TOl1Qg2qMmbZ1-6" value="&amp;nbsp; &amp;nbsp; &amp;nbsp; &amp;nbsp; &amp;nbsp; &amp;nbsp; &amp;nbsp; &amp;nbsp; &amp;nbsp; &amp;nbsp; 2--------------------------------------------------------------------" style="text;html=1;align=left;verticalAlign=middle;whiteSpace=wrap;rounded=0;fontColor=#FF0000;" parent="1" vertex="1">
          <mxGeometry x="90" y="390" width="350" height="30" as="geometry" />
        </mxCell>
        <mxCell id="8AMQjc9TOl1Qg2qMmbZ1-7" value="" style="verticalLabelPosition=bottom;shadow=0;dashed=0;align=center;html=1;verticalAlign=top;strokeWidth=1;shape=mxgraph.mockup.markup.line;strokeColor=#999999;direction=north;" parent="1" vertex="1">
          <mxGeometry x="230" y="410" width="20" height="50" as="geometry" />
        </mxCell>
        <mxCell id="8AMQjc9TOl1Qg2qMmbZ1-8" value="4" style="text;html=1;align=center;verticalAlign=middle;whiteSpace=wrap;rounded=0;" parent="1" vertex="1">
          <mxGeometry x="170" y="460" width="60" height="30" as="geometry" />
        </mxCell>
        <mxCell id="8AMQjc9TOl1Qg2qMmbZ1-13" value="" style="verticalLabelPosition=bottom;shadow=0;dashed=0;align=center;html=1;verticalAlign=top;strokeWidth=1;shape=mxgraph.mockup.markup.line;strokeColor=#999999;direction=north;" parent="1" vertex="1">
          <mxGeometry x="190" y="410" width="20" height="50" as="geometry" />
        </mxCell>
        <mxCell id="8AMQjc9TOl1Qg2qMmbZ1-14" value="5&lt;span style=&quot;white-space: pre;&quot;&gt;&#x9;&lt;/span&gt;" style="text;html=1;align=center;verticalAlign=middle;whiteSpace=wrap;rounded=0;" parent="1" vertex="1">
          <mxGeometry x="210" y="460" width="60" height="30" as="geometry" />
        </mxCell>
        <mxCell id="8AMQjc9TOl1Qg2qMmbZ1-22" value="Specifications" style="shape=umlFrame;whiteSpace=wrap;html=1;pointerEvents=0;width=120;height=40;" parent="1" vertex="1">
          <mxGeometry x="760" y="-155" width="600" height="520" as="geometry" />
        </mxCell>
        <mxCell id="8AMQjc9TOl1Qg2qMmbZ1-24" value="1) The height of line:&lt;br&gt;- We use direct character &#39; | &#39; for each line, so the high of line can dynamic (it will dependency on number of character &#39; | &#39;)&lt;div&gt;- The default of it mesured one character &#39; | &#39;&lt;br&gt;&lt;div&gt;2) The gap between two node (or two vertical line)&lt;/div&gt;&lt;div&gt;- We also use direct character tab on computer to make gap between two vertical line (or two nodes)&lt;/div&gt;&lt;/div&gt;&lt;div&gt;- The &quot;default&quot; of gap is the width of one tab (from start point to end point)&lt;/div&gt;&lt;div&gt;- We can make a dynamic gap by combine multiple tab&lt;/div&gt;&lt;div&gt;- Some of rule for create gap between two node (which are on the same level of tree)&lt;/div&gt;&lt;div&gt;+ The gap between two nodes which have same level, it calculated by below formula:&lt;/div&gt;&lt;div&gt;&lt;span style=&quot;color: rgb(255, 128, 0);&quot;&gt;&amp;nbsp;size_of_gap = n;&lt;/span&gt;&lt;br&gt;&lt;/div&gt;&lt;div&gt;&lt;font color=&quot;#ff8000&quot;&gt;&amp;nbsp;gap_of_two_node = (2 + number_node_between) * n&lt;/font&gt;&lt;/div&gt;&lt;div&gt;If the gap_of_two_node equal 0, we get 1*size_of_gap as a default value.&lt;/div&gt;&lt;div&gt;&lt;br&gt;&lt;/div&gt;&lt;div&gt;&lt;br&gt;&lt;/div&gt;" style="text;html=1;align=left;verticalAlign=top;whiteSpace=wrap;rounded=0;" parent="1" vertex="1">
          <mxGeometry x="795" y="-85" width="530" height="400" as="geometry" />
        </mxCell>
        <mxCell id="8AMQjc9TOl1Qg2qMmbZ1-33" value="" style="verticalLabelPosition=bottom;shadow=0;dashed=0;align=center;html=1;verticalAlign=top;strokeWidth=1;shape=mxgraph.mockup.markup.line;strokeColor=#999999;direction=north;" parent="1" vertex="1">
          <mxGeometry x="270" y="480" width="20" height="50" as="geometry" />
        </mxCell>
        <mxCell id="8AMQjc9TOl1Qg2qMmbZ1-34" value="6" style="text;html=1;align=center;verticalAlign=middle;whiteSpace=wrap;rounded=0;" parent="1" vertex="1">
          <mxGeometry x="250" y="520" width="60" height="30" as="geometry" />
        </mxCell>
        <mxCell id="Ylel_6rLSEWIwe92GrL6-1" value="" style="verticalLabelPosition=bottom;shadow=0;dashed=0;align=center;html=1;verticalAlign=top;strokeWidth=1;shape=mxgraph.mockup.markup.line;strokeColor=#999999;direction=north;" parent="1" vertex="1">
          <mxGeometry x="870" y="165" width="20" height="80" as="geometry" />
        </mxCell>
        <mxCell id="Ylel_6rLSEWIwe92GrL6-2" value="" style="verticalLabelPosition=bottom;shadow=0;dashed=0;align=center;html=1;verticalAlign=top;strokeWidth=1;shape=mxgraph.mockup.markup.line;strokeColor=#999999;direction=north;" parent="1" vertex="1">
          <mxGeometry x="950" y="165" width="20" height="80" as="geometry" />
        </mxCell>
        <mxCell id="Ylel_6rLSEWIwe92GrL6-3" value="5&lt;span style=&quot;white-space: pre;&quot;&gt;&#x9;&lt;/span&gt;" style="text;html=1;align=center;verticalAlign=middle;whiteSpace=wrap;rounded=0;" parent="1" vertex="1">
          <mxGeometry x="850" y="245" width="60" height="30" as="geometry" />
        </mxCell>
        <mxCell id="Ylel_6rLSEWIwe92GrL6-4" value="7" style="text;html=1;align=center;verticalAlign=middle;whiteSpace=wrap;rounded=0;" parent="1" vertex="1">
          <mxGeometry x="930" y="245" width="60" height="30" as="geometry" />
        </mxCell>
        <mxCell id="Ylel_6rLSEWIwe92GrL6-5" value="" style="endArrow=classic;startArrow=classic;html=1;rounded=0;entryX=0.5;entryY=0.55;entryDx=0;entryDy=0;entryPerimeter=0;" parent="1" target="Ylel_6rLSEWIwe92GrL6-2" edge="1">
          <mxGeometry width="50" height="50" relative="1" as="geometry">
            <mxPoint x="880" y="205" as="sourcePoint" />
            <mxPoint x="930" y="155" as="targetPoint" />
          </mxGeometry>
        </mxCell>
        <mxCell id="Ylel_6rLSEWIwe92GrL6-6" value="horizontal gap" style="text;html=1;align=center;verticalAlign=middle;whiteSpace=wrap;rounded=0;" parent="1" vertex="1">
          <mxGeometry x="880" y="175" width="80" height="30" as="geometry" />
        </mxCell>
        <mxCell id="Ylel_6rLSEWIwe92GrL6-7" value="1" style="text;html=1;align=center;verticalAlign=middle;whiteSpace=wrap;rounded=0;" parent="1" vertex="1">
          <mxGeometry x="850" y="135" width="60" height="30" as="geometry" />
        </mxCell>
        <mxCell id="Ylel_6rLSEWIwe92GrL6-8" value="3" style="text;html=1;align=center;verticalAlign=middle;whiteSpace=wrap;rounded=0;" parent="1" vertex="1">
          <mxGeometry x="930" y="135" width="60" height="30" as="geometry" />
        </mxCell>
        <mxCell id="Ylel_6rLSEWIwe92GrL6-9" value="" style="endArrow=classic;startArrow=classic;html=1;rounded=0;exitX=0.167;exitY=0;exitDx=0;exitDy=0;exitPerimeter=0;" parent="1" source="Ylel_6rLSEWIwe92GrL6-3" edge="1">
          <mxGeometry width="50" height="50" relative="1" as="geometry">
            <mxPoint x="810" y="215" as="sourcePoint" />
            <mxPoint x="860" y="165" as="targetPoint" />
          </mxGeometry>
        </mxCell>
        <mxCell id="Ylel_6rLSEWIwe92GrL6-10" value="Vertical gap" style="edgeLabel;html=1;align=center;verticalAlign=middle;resizable=0;points=[];" parent="Ylel_6rLSEWIwe92GrL6-9" vertex="1" connectable="0">
          <mxGeometry x="0.175" y="-1" relative="1" as="geometry">
            <mxPoint x="-41" y="-3" as="offset" />
          </mxGeometry>
        </mxCell>
        <mxCell id="Ylel_6rLSEWIwe92GrL6-11" value="Scale up on both horizontal and vertical dimensions." style="text;html=1;align=left;verticalAlign=top;whiteSpace=wrap;rounded=0;" parent="1" vertex="1">
          <mxGeometry x="1000" y="155" width="320" height="50" as="geometry" />
        </mxCell>
        <mxCell id="iBCfhYwtB1yg5BBrc0kO-6" value="&lt;div&gt;&lt;font color=&quot;#ff1212&quot;&gt;*** Build TreePath Rule ***&lt;/font&gt;&lt;/div&gt;&lt;div&gt;1) Existing cycle on a TreePath:&lt;br&gt;- At each node, we will check that whether it exists on TreePath.&lt;/div&gt;&lt;div&gt;+ If existed, we will &lt;font color=&quot;#ff8000&quot;&gt;highlight the treePath which include it by a special color&lt;/font&gt; (The default color is red) and at the same time we also add some text node for it (at the right of text node).After then we will skip this node.&lt;/div&gt;&lt;div&gt;+ Before we build a treePath, we will pre-process the input data with rule:&lt;br&gt;++ &lt;font color=&quot;#ff0000&quot;&gt;Each element&lt;/font&gt; inside &lt;font color=&quot;#ff0000&quot;&gt;the childs&lt;/font&gt; must be &lt;font color=&quot;#ff0000&quot;&gt;unique value.&lt;/font&gt;&lt;/div&gt;" style="text;html=1;align=left;verticalAlign=top;whiteSpace=wrap;rounded=0;" vertex="1" parent="1">
          <mxGeometry x="-240" y="480" width="290" height="200" as="geometry" />
        </mxCell>
        <mxCell id="iBCfhYwtB1yg5BBrc0kO-10" value="" style="verticalLabelPosition=bottom;shadow=0;dashed=0;align=center;html=1;verticalAlign=top;strokeWidth=1;shape=mxgraph.mockup.markup.line;strokeColor=#999999;direction=north;" vertex="1" parent="1">
          <mxGeometry x="390" y="480" width="20" height="50" as="geometry" />
        </mxCell>
        <mxCell id="iBCfhYwtB1yg5BBrc0kO-11" value="" style="verticalLabelPosition=bottom;shadow=0;dashed=0;align=center;html=1;verticalAlign=top;strokeWidth=1;shape=mxgraph.mockup.markup.line;strokeColor=#999999;direction=north;" vertex="1" parent="1">
          <mxGeometry x="350" y="540" width="20" height="50" as="geometry" />
        </mxCell>
        <mxCell id="iBCfhYwtB1yg5BBrc0kO-12" value="10" style="text;html=1;align=center;verticalAlign=middle;whiteSpace=wrap;rounded=0;" vertex="1" parent="1">
          <mxGeometry x="290" y="590" width="60" height="30" as="geometry" />
        </mxCell>
        <mxCell id="iBCfhYwtB1yg5BBrc0kO-13" value="11" style="text;html=1;align=center;verticalAlign=middle;whiteSpace=wrap;rounded=0;" vertex="1" parent="1">
          <mxGeometry x="330" y="590" width="60" height="30" as="geometry" />
        </mxCell>
        <mxCell id="iBCfhYwtB1yg5BBrc0kO-17" value="------------------------------------------------------------------------------------------------------------------------" style="text;html=1;align=left;verticalAlign=middle;whiteSpace=wrap;rounded=0;" vertex="1" parent="1">
          <mxGeometry x="160" y="335" width="590" height="30" as="geometry" />
        </mxCell>
        <mxCell id="iBCfhYwtB1yg5BBrc0kO-20" value="1" style="text;html=1;align=center;verticalAlign=middle;whiteSpace=wrap;rounded=0;fontColor=#FF0000;" vertex="1" parent="1">
          <mxGeometry x="100" y="340" width="60" height="30" as="geometry" />
        </mxCell>
        <mxCell id="iBCfhYwtB1yg5BBrc0kO-23" value="---------------------------------------" style="text;html=1;align=left;verticalAlign=middle;whiteSpace=wrap;rounded=0;" vertex="1" parent="1">
          <mxGeometry x="240" y="460" width="160" height="30" as="geometry" />
        </mxCell>
        <mxCell id="iBCfhYwtB1yg5BBrc0kO-24" value="20" style="text;html=1;align=center;verticalAlign=middle;whiteSpace=wrap;rounded=0;" vertex="1" parent="1">
          <mxGeometry x="370" y="520" width="60" height="30" as="geometry" />
        </mxCell>
        <mxCell id="iBCfhYwtB1yg5BBrc0kO-25" value="" style="verticalLabelPosition=bottom;shadow=0;dashed=0;align=center;html=1;verticalAlign=top;strokeWidth=1;shape=mxgraph.mockup.markup.line;strokeColor=#999999;direction=north;" vertex="1" parent="1">
          <mxGeometry x="310" y="540" width="20" height="50" as="geometry" />
        </mxCell>
        <mxCell id="iBCfhYwtB1yg5BBrc0kO-26" value="-------------------" style="text;html=1;align=left;verticalAlign=middle;whiteSpace=wrap;rounded=0;" vertex="1" parent="1">
          <mxGeometry x="280" y="520" width="80" height="30" as="geometry" />
        </mxCell>
        <mxCell id="iBCfhYwtB1yg5BBrc0kO-28" value="1" style="text;html=1;align=center;verticalAlign=middle;whiteSpace=wrap;rounded=0;fontColor=#FF0000;" vertex="1" parent="1">
          <mxGeometry x="405" y="460" width="60" height="30" as="geometry" />
        </mxCell>
        <mxCell id="iBCfhYwtB1yg5BBrc0kO-29" value="" style="verticalLabelPosition=bottom;shadow=0;dashed=0;align=center;html=1;verticalAlign=top;strokeWidth=1;shape=mxgraph.mockup.markup.line;strokeColor=#FF0000;direction=north;" vertex="1" parent="1">
          <mxGeometry x="425" y="410" width="20" height="50" as="geometry" />
        </mxCell>
        <mxCell id="iBCfhYwtB1yg5BBrc0kO-30" value="" style="verticalLabelPosition=bottom;shadow=0;dashed=0;align=center;html=1;verticalAlign=top;strokeWidth=1;shape=mxgraph.mockup.markup.line;strokeColor=#999999;direction=north;" vertex="1" parent="1">
          <mxGeometry x="470" y="350" width="20" height="50" as="geometry" />
        </mxCell>
        <mxCell id="iBCfhYwtB1yg5BBrc0kO-31" value="3" style="text;html=1;align=center;verticalAlign=middle;whiteSpace=wrap;rounded=0;" vertex="1" parent="1">
          <mxGeometry x="450" y="390" width="60" height="30" as="geometry" />
        </mxCell>
        <mxCell id="iBCfhYwtB1yg5BBrc0kO-32" value="" style="verticalLabelPosition=bottom;shadow=0;dashed=0;align=center;html=1;verticalAlign=top;strokeWidth=1;shape=mxgraph.mockup.markup.line;strokeColor=#999999;direction=north;" vertex="1" parent="1">
          <mxGeometry x="630" y="350" width="20" height="50" as="geometry" />
        </mxCell>
        <mxCell id="iBCfhYwtB1yg5BBrc0kO-33" value="4" style="text;html=1;align=center;verticalAlign=middle;whiteSpace=wrap;rounded=0;" vertex="1" parent="1">
          <mxGeometry x="610" y="390" width="60" height="30" as="geometry" />
        </mxCell>
        <mxCell id="iBCfhYwtB1yg5BBrc0kO-34" value="-----------------------------" style="text;html=1;align=left;verticalAlign=middle;whiteSpace=wrap;rounded=0;" vertex="1" parent="1">
          <mxGeometry x="480" y="390" width="160" height="30" as="geometry" />
        </mxCell>
        <mxCell id="iBCfhYwtB1yg5BBrc0kO-35" value="" style="verticalLabelPosition=bottom;shadow=0;dashed=0;align=center;html=1;verticalAlign=top;strokeWidth=1;shape=mxgraph.mockup.markup.line;strokeColor=#999999;direction=north;" vertex="1" parent="1">
          <mxGeometry x="510" y="410" width="20" height="50" as="geometry" />
        </mxCell>
        <mxCell id="iBCfhYwtB1yg5BBrc0kO-37" value="" style="verticalLabelPosition=bottom;shadow=0;dashed=0;align=center;html=1;verticalAlign=top;strokeWidth=1;shape=mxgraph.mockup.markup.line;strokeColor=#999999;direction=north;" vertex="1" parent="1">
          <mxGeometry x="550" y="410" width="20" height="50" as="geometry" />
        </mxCell>
        <mxCell id="iBCfhYwtB1yg5BBrc0kO-38" value="" style="verticalLabelPosition=bottom;shadow=0;dashed=0;align=center;html=1;verticalAlign=top;strokeWidth=1;shape=mxgraph.mockup.markup.line;strokeColor=#999999;direction=north;" vertex="1" parent="1">
          <mxGeometry x="590" y="410" width="20" height="50" as="geometry" />
        </mxCell>
        <mxCell id="iBCfhYwtB1yg5BBrc0kO-39" value="7" style="text;html=1;align=center;verticalAlign=middle;whiteSpace=wrap;rounded=0;" vertex="1" parent="1">
          <mxGeometry x="490" y="460" width="60" height="30" as="geometry" />
        </mxCell>
        <mxCell id="iBCfhYwtB1yg5BBrc0kO-40" value="8" style="text;html=1;align=center;verticalAlign=middle;whiteSpace=wrap;rounded=0;" vertex="1" parent="1">
          <mxGeometry x="530" y="460" width="60" height="30" as="geometry" />
        </mxCell>
        <mxCell id="iBCfhYwtB1yg5BBrc0kO-41" value="9" style="text;html=1;align=center;verticalAlign=middle;whiteSpace=wrap;rounded=0;" vertex="1" parent="1">
          <mxGeometry x="570" y="460" width="60" height="30" as="geometry" />
        </mxCell>
      </root>
    </mxGraphModel>
  </diagram>
</mxfile>
